PathFileType	4	(X/Y/Z)	Patient4_TMGait_0pt4_01_right_42.trc.trc
DataRate	CameraRate	NumFrames	NumMarkers	Units	OrigDataRate	OrigDataStartFrame	OrigNumFrames
74.468085106383	74.468085106383	4	33	mm	74.468085106383	71	       141
Frame#	Time	Sacral			L.Shoulder			Chest			R.Shoulder			Neck			R.ASIS			L.ASIS			R.Thigh.Superior			R.Thigh.Lateral			R.Thigh.Inferior			R.Patella			L.Thigh.Superior			L.Thigh.Lateral			L.Thigh.Inferior			L.Patella			L.Shank.Superior			L.Shank.Lateral			L.Shank.Inferior			R.Shank.Superior			R.Shank.Lateral			R.Shank.Inferior			R.Heel			R.Midfoot.Superior			R.Midfoot.Lateral			R.Toe			L.Heel			L.Midfoot.Lateral			L.Midfoot.Superior			L.Toe			L.Elbow			L.Wrist			R.Elbow			R.Wrist			
		X1	Y1	Z1	X2	Y2	Z2	X3	Y3	Z3	X4	Y4	Z4	X5	Y5	Z5	X6	Y6	Z6	X7	Y7	Z7	X8	Y8	Z8	X9	Y9	Z9	X10	Y10	Z10	X11	Y11	Z11	X12	Y12	Z12	X13	Y13	Z13	X14	Y14	Z14	X15	Y15	Z15	X16	Y16	Z16	X17	Y17	Z17	X18	Y18	Z18	X19	Y19	Z19	X20	Y20	Z20	X21	Y21	Z21	X22	Y22	Z22	X23	Y23	Z23	X24	Y24	Z24	X25	Y25	Z25	X26	Y26	Z26	X27	Y27	Z27	X28	Y28	Z28	X29	Y29	Z29	X30	Y30	Z30	X31	Y31	Z31	X32	Y32	Z32	X33	Y33	Z33	

71	55.740000000000	888.356230909941	1002.236032835276	506.706237757426	1043.861894430426	1421.656168074181	290.154762246628	1172.479673854119	1355.015004810725	432.333117236229	1123.033402244560	1434.952220177066	616.273269430840	1058.310509603472	1487.797676006003	443.136538180302	1128.621522969128	932.359634461639	589.334304393188	1077.526494260436	956.227747363864	319.723875241966	1129.924789020647	720.323513309704	558.726592403137	1036.327283959647	623.333282523998	630.069720085981	1090.864966281467	560.453057985906	543.231195395758	1073.075916616720	473.705761240370	549.227204284834	1156.320213635248	767.098576150460	348.257312201550	1097.022906819242	637.984102711147	280.511953729995	1200.397588280733	578.494032360032	339.438068053836	1221.456553338749	511.767033610275	339.721721917641	1202.819653656944	438.766771865458	330.086103554707	1130.138574364734	312.281502433199	279.738137025402	1210.946453383388	209.232058322831	336.850372869928	1032.961504390985	389.498944572488	560.109813513968	952.691508632422	298.104900416650	630.754878268304	970.510655982892	198.318058572820	564.575481766939	814.723852162659	43.258401523777	546.874606322531	987.346295696419	95.817068243468	573.479148176621	900.917431128654	37.001984192920	618.049692136296	1108.605018927585	42.447280987822	598.086564823811	1115.994459380121	39.642345789676	375.800017184915	1190.096677994502	39.128936709551	295.626267715292	1267.436347543658	108.485831670844	319.170495371999	1398.308320459834	67.250660680826	292.398587630259	946.495031974108	1076.794796834111	195.289639995552	988.762778743167	820.518831951763	160.287499900968	1191.488460146545	1093.110420530367	731.000534021410	1405.684115308960	998.133424247937	629.049804871625	
72	55.753428571429	889.920238246180	1001.333258211987	503.362716356574	1044.375681172960	1420.601447721553	286.564287682542	1172.821320175455	1354.766491266408	429.270491658618	1122.370559254822	1434.607105633680	612.987138892441	1058.460320731118	1487.087311996141	439.523203966601	1129.957772059547	931.740300587837	587.320471616377	1080.067576142913	955.206188238414	317.586516039416	1130.671336284679	719.296153236276	557.335562528384	1035.914578667449	622.729875910132	628.179024515167	1090.528134130695	559.378061076558	541.808964091680	1072.155970942097	472.225127013016	547.755422597096	1158.134424781760	764.899270122099	346.858607346940	1097.266755993769	636.353306211542	279.554966984259	1199.987292138448	576.350497558278	339.161676435452	1219.465421490902	508.836460764822	340.114235879411	1200.454825272684	435.726079652164	330.189527920253	1126.357983943663	310.040516328445	279.650118553802	1205.230984456835	206.087349859673	337.812466078430	1030.945646303042	388.565510772948	558.821440358418	949.637289406339	298.308387855587	629.913029266131	966.375965125135	198.063404616904	564.052486617460	809.357633415149	43.786234285458	546.935824095153	982.152073377272	95.894009606740	573.425844631292	895.602092264107	37.220024273604	618.025420677436	1103.305154049602	42.148732159614	598.193127983976	1106.849150675541	38.897843773840	376.419808846230	1181.316028186714	37.290508953289	296.453628012931	1260.315004175150	104.390975744800	321.135806089136	1390.642859882060	59.994869488881	294.712991572015	948.115767553020	1075.257413193486	192.366701198647	992.791677735721	819.285408208639	157.379381212347	1190.161285159757	1091.957063090724	726.390734669767	1402.369150002817	995.510189190205	621.546466459409	
73	55.766857142857	891.393205699360	1000.631252907657	499.987237370445	1045.055746708011	1419.698412960316	282.857526904594	1173.277154429906	1354.611367218653	426.110794297261	1121.868016804746	1434.443085283568	609.574470083050	1058.785419116430	1486.545854449582	435.746634429832	1131.210591529465	931.267229270872	585.099736709695	1082.395039976690	954.489125922223	315.279021594566	1131.671833745537	718.462041810914	555.634197982618	1036.019675314448	622.179851164597	626.029994286223	1090.795018554733	558.416321894846	540.088975016394	1072.049734875134	470.663105301621	546.106286242948	1159.886791437443	763.186217251172	345.379854040520	1097.755995173322	635.250030874534	278.372245549321	1199.769668781949	574.738998526232	338.723236935967	1217.727751840820	506.513424588342	340.271483946882	1198.483116510085	433.287061400419	330.029113789628	1123.287661781451	308.316168028741	279.133383961312	1200.238348998253	203.605422542709	338.465009952043	1029.508771592205	387.654886714848	557.367606136234	947.018920597805	298.715057374283	628.922750415035	962.539308019016	197.965410725408	563.472771355989	804.056671002018	44.731240095690	547.015524776041	977.131047392554	96.039109113660	573.381760086698	890.366535969478	37.648945564790	617.996575418349	1098.074276845182	41.780788111537	598.299238835679	1098.796545039356	38.419511497341	376.754870929318	1173.560001516060	36.045618562916	296.953471433473	1253.841049131807	101.285781018592	322.698517043917	1383.743154607719	54.413137342325	296.531383573235	950.261552875700	1073.791562042311	189.209306412882	997.367989710111	818.145062769114	154.296363020008	1188.432421567307	1091.015890707116	722.068036581837	1398.396062213270	992.254523012984	614.662879137385	
74	55.780285714286	892.724537718064	1000.174429654072	496.609059760763	1045.883693841742	1419.004609838937	279.070546204382	1173.842928879179	1354.565132281316	422.860495306387	1121.581167289642	1434.497652021995	606.044210701982	1059.296601683730	1486.213576883495	431.844612261843	1132.327249059595	930.996840963869	582.654804656707	1084.427069665904	954.101972609036	312.757525029981	1132.887638253368	717.884192098659	553.597986843580	1036.694600387218	621.713802821832	623.650549209240	1091.744642141813	557.612840811987	538.094647406011	1072.882900351792	469.046443367489	544.362723082812	1161.563559621646	762.073121366374	343.751368572959	1098.494021702866	634.680910214812	276.970632609114	1199.775329203728	573.685023200404	338.030173406094	1216.315872590261	504.826580740756	340.124775969176	1196.930350156959	431.461736680999	329.606777153157	1120.894895787881	307.135810834672	278.225656824591	1195.921966281343	201.785357536244	338.815565833183	1028.757452794135	386.802343911647	555.809342774739	944.910593847679	299.381946908377	627.810422071315	959.075721552296	198.083710800121	562.872691568621	798.858151971572	46.226847229834	547.114892867904	972.339007214060	96.264378632005	573.363110837677	885.232617717615	38.358326629381	617.968954882466	1092.916025645668	41.348113527201	598.399181156698	1091.796696014479	38.172173686067	376.865095086477	1166.774582029702	35.325895707895	297.174953441666	1247.956784525840	99.153777329345	323.829795847845	1377.554834983404	50.516700204414	297.811883789891	952.903366336754	1072.471127518804	185.824333423108	1002.479862013249	817.176386905048	151.065346703348	1186.303292354225	1090.334247937845	718.053026905734	1393.756850829921	988.372529729600	608.493111282100	
